<svg width="1110" height="221" viewBox="0 0 1110 221" fill="none" xmlns="http://www.w3.org/2000/svg">
<path d="M249.92 174H243.16V145.52H249.92V174ZM252.497 145.52H276.777V151.56H268.017V174H261.217V151.56H252.497V145.52ZM278.61 151.88V145.56H285.13V152.36C285.13 156.147 283.237 158.08 279.45 158.16H278.61V155H279.49C280.743 154.947 281.37 154.12 281.37 152.52V151.88H278.61ZM295.428 145.52V167.96H308.468V174H288.668V145.52H295.428ZM317.889 145.52V167.96H330.929V174H311.129V145.52H317.889ZM362.206 158.84C363.752 159.4 364.966 160.32 365.846 161.6C366.726 162.853 367.166 164.227 367.166 165.72C367.166 168.333 366.286 170.373 364.526 171.84C362.792 173.28 360.232 174 356.846 174H342.926V145.52H356.446C359.592 145.52 361.966 146.187 363.566 147.52C365.192 148.853 366.006 150.613 366.006 152.8C366.006 155.627 364.739 157.64 362.206 158.84ZM356.006 150.92H349.686V157H356.006C357.046 157 357.846 156.72 358.406 156.16C358.992 155.6 359.286 154.84 359.286 153.88C359.286 152.973 358.992 152.253 358.406 151.72C357.846 151.187 357.046 150.92 356.006 150.92ZM349.686 168.6H356.446C357.646 168.6 358.566 168.32 359.206 167.76C359.872 167.2 360.206 166.4 360.206 165.36C360.206 163.2 358.952 162.12 356.446 162.12H349.686V168.6ZM391.756 145.52V151.56H376.756V156.72H390.396V162.4H376.756V167.96H391.716V174H369.996V145.52H391.756ZM427.494 166.92L427.694 170.92C427.72 172.2 427.987 173.227 428.494 174H421.534C421.107 173.2 420.88 172.16 420.854 170.88L420.734 167.68C420.68 166.107 420.32 165.027 419.654 164.44C419.014 163.827 417.974 163.52 416.534 163.52H411.014V174H404.254V145.52H417.734C421.067 145.52 423.614 146.267 425.374 147.76C427.16 149.227 428.054 151.227 428.054 153.76C428.054 157.04 426.52 159.293 423.454 160.52C424.92 161 425.934 161.733 426.494 162.72C427.08 163.707 427.414 165.107 427.494 166.92ZM411.014 150.92V158.44H416.974C418.28 158.44 419.294 158.12 420.014 157.48C420.734 156.813 421.094 155.867 421.094 154.64C421.094 152.16 419.68 150.92 416.854 150.92H411.014ZM453.084 145.52V151.56H438.084V156.72H451.724V162.4H438.084V167.96H453.044V174H431.324V145.52H453.084ZM478.006 145.52V151.56H463.006V156.72H476.646V162.4H463.006V167.96H477.966V174H456.246V145.52H478.006ZM479.489 145.52H503.769V151.56H495.009V174H488.209V151.56H479.489V145.52Z" fill="black"/>
<path d="M273.576 81.84V64.432H284.392V110H273.576V91.568H255.272V110H244.456V64.432H255.272V81.84H273.576ZM330.574 64.432L315.79 86.64L331.534 110H318.99L315.214 104.304C313.422 101.616 311.459 98.5867 309.326 95.216C308.686 96.2827 306.744 99.312 303.502 104.304L299.726 110H287.438L303.246 86.832L288.398 64.432H300.878L304.333 69.744C304.376 69.872 306.147 72.688 309.646 78.192C311.651 74.9067 313.422 72.0907 314.958 69.744L318.478 64.432H330.574ZM349.956 64.432H370.692C375.94 64.432 380.057 65.8187 383.044 68.592C386.031 71.3227 387.524 75.056 387.524 79.792C387.524 84.528 386.031 88.2827 383.044 91.056C380.057 93.7867 375.94 95.152 370.692 95.152H360.772V110H349.956V64.432ZM360.772 86H369.988C372.121 86 373.764 85.4667 374.916 84.4C376.111 83.3333 376.708 81.7973 376.708 79.792C376.708 77.7867 376.111 76.2507 374.916 75.184C373.721 74.1173 372.079 73.584 369.988 73.584H360.772V86ZM403.272 64.432V100.336H424.136V110H392.456V64.432H403.272ZM446.467 111.024C440.536 111.024 435.758 109.424 432.131 106.224C428.504 103.109 426.691 98.5867 426.691 92.656V64.432H437.507V92.784C437.507 95.6853 438.275 97.904 439.811 99.44C441.39 100.933 443.608 101.68 446.467 101.68C449.326 101.68 451.544 100.933 453.123 99.44C454.702 97.904 455.491 95.6853 455.491 92.784V64.432H466.307V92.656C466.307 98.5013 464.536 103.024 460.995 106.224C457.496 109.424 452.654 111.024 446.467 111.024ZM500.997 83.824L506.949 64.432H523.141V110H512.837V96.624C512.837 88.1333 512.965 80.7947 513.221 74.608C512.41 77.7227 511.386 81.1787 510.149 84.976L502.277 110H493.445L485.573 84.976C484.634 81.9467 483.632 78.512 482.565 74.672C482.778 81.84 482.885 89.1573 482.885 96.624V110H472.581V64.432H488.773L494.789 84.016C495.6 86.7893 496.645 90.5653 497.925 95.344C498.949 91.2907 499.973 87.4507 500.997 83.824ZM560.929 85.744C563.404 86.64 565.345 88.112 566.753 90.16C568.161 92.1653 568.865 94.3627 568.865 96.752C568.865 100.933 567.457 104.197 564.641 106.544C561.868 108.848 557.772 110 552.353 110H530.081V64.432H551.713C556.748 64.432 560.545 65.4987 563.105 67.632C565.708 69.7653 567.009 72.5813 567.009 76.08C567.009 80.6027 564.982 83.824 560.929 85.744ZM551.009 73.072H540.897V82.8H551.009C552.673 82.8 553.953 82.352 554.849 81.456C555.788 80.56 556.257 79.344 556.257 77.808C556.257 76.3573 555.788 75.2053 554.849 74.352C553.953 73.4987 552.673 73.072 551.009 73.072ZM540.897 101.36H551.713C553.633 101.36 555.105 100.912 556.129 100.016C557.196 99.12 557.729 97.84 557.729 96.176C557.729 92.72 555.724 90.992 551.713 90.992H540.897V101.36ZM584.21 110H573.394V64.432H584.21V110ZM620.776 73.968V64.432H631.08V110H619.432L608.296 91.824C604.882 86.1493 602.514 82.0107 601.192 79.408C601.362 85.2533 601.448 92.272 601.448 100.464V110H591.144V64.432H602.792L613.928 82.608C617.128 87.8987 619.496 92.08 621.032 95.152C620.861 89.2213 620.776 82.16 620.776 73.968ZM660.547 93.04V84.592H681.539V110H673.987L672.707 103.984C669.635 108.677 664.707 111.024 657.923 111.024C651.309 111.024 646.019 108.848 642.051 104.496C638.083 100.229 636.099 94.4693 636.099 87.216C636.099 79.8773 638.168 74.0747 642.307 69.808C646.403 65.5413 652.035 63.408 659.203 63.408C665.133 63.408 670.061 64.88 673.987 67.824C677.955 70.8107 680.28 74.8 680.963 79.792H669.891C669.251 77.5733 668.013 75.8453 666.179 74.608C664.344 73.3707 662.04 72.752 659.267 72.752C655.555 72.752 652.632 74.032 650.499 76.592C648.408 79.152 647.363 82.6933 647.363 87.216C647.363 91.7387 648.451 95.28 650.627 97.84C652.845 100.4 655.896 101.68 659.779 101.68C662.595 101.68 665.005 100.891 667.011 99.312C669.059 97.6907 670.275 95.6 670.659 93.04H660.547ZM736.881 100.784L745.201 110H732.913L730.353 107.184C726.513 109.744 722.289 111.024 717.681 111.024C712.433 111.024 708.294 109.744 705.265 107.184C702.278 104.709 700.785 101.424 700.785 97.328C700.785 91.6533 703.942 87.3867 710.257 84.528L710.193 84.464C708.571 82.6293 707.419 81.008 706.737 79.6C706.054 78.1493 705.713 76.592 705.713 74.928C705.713 71.6 706.95 68.848 709.425 66.672C711.899 64.496 715.27 63.408 719.537 63.408C723.633 63.408 726.982 64.4107 729.585 66.416C732.102 68.464 733.361 71.152 733.361 74.48C733.361 79.5573 730.182 83.5467 723.825 86.448L730.865 94.192C731.803 92.1867 732.337 89.904 732.465 87.344H741.425C741.211 92.336 739.697 96.816 736.881 100.784ZM723.249 72.176C721.969 70.9813 720.326 70.7253 718.321 71.408C716.358 72.0907 715.462 73.264 715.633 74.928C715.633 76.5067 716.721 78.512 718.897 80.944L719.217 81.264C722.715 79.472 724.465 77.3813 724.465 74.992C724.465 73.8827 724.059 72.944 723.249 72.176ZM711.217 96.368C711.217 98.16 711.899 99.6747 713.265 100.912C714.63 102.149 716.422 102.768 718.641 102.768C720.859 102.768 722.971 102.192 724.977 101.04L715.121 90.032C712.518 91.6107 711.217 93.7227 711.217 96.368ZM792.701 81.84V64.432H803.517V110H792.701V91.568H774.397V110H763.581V64.432H774.397V81.84H792.701ZM845.272 64.432V74.096H821.272V82.352H843.096V91.44H821.272V100.336H845.208V110H810.456V64.432H845.272ZM893.409 110H881.953L879.265 102.064H860.321L857.697 110H846.625L863.393 64.432H876.257L893.409 110ZM865.953 85.232L863.329 93.04H876.193L873.569 85.232C872.758 82.928 871.478 79.088 869.729 73.712C867.468 80.6667 866.209 84.5067 865.953 85.232ZM887.582 64.432H926.43V74.096H912.414V110H901.534V74.096H887.582V64.432ZM941.272 110H930.456V64.432H941.272V110ZM977.838 73.968V64.432H988.142V110H976.494L965.358 91.824C961.945 86.1493 959.577 82.0107 958.254 79.408C958.425 85.2533 958.51 92.272 958.51 100.464V110H948.206V64.432H959.854L970.99 82.608C974.19 87.8987 976.558 92.08 978.094 95.152C977.923 89.2213 977.838 82.16 977.838 73.968ZM1017.61 93.04V84.592H1038.6V110H1031.05L1029.77 103.984C1026.7 108.677 1021.77 111.024 1014.99 111.024C1008.37 111.024 1003.08 108.848 999.113 104.496C995.145 100.229 993.161 94.4693 993.161 87.216C993.161 79.8773 995.23 74.0747 999.369 69.808C1003.47 65.5413 1009.1 63.408 1016.27 63.408C1022.2 63.408 1027.12 64.88 1031.05 67.824C1035.02 70.8107 1037.34 74.8 1038.03 79.792H1026.95C1026.31 77.5733 1025.08 75.8453 1023.24 74.608C1021.41 73.3707 1019.1 72.752 1016.33 72.752C1012.62 72.752 1009.69 74.032 1007.56 76.592C1005.47 79.152 1004.43 82.6933 1004.43 87.216C1004.43 91.7387 1005.51 95.28 1007.69 97.84C1009.91 100.4 1012.96 101.68 1016.84 101.68C1019.66 101.68 1022.07 100.891 1024.07 99.312C1026.12 97.6907 1027.34 95.6 1027.72 93.04H1017.61Z" fill="black"/>
<path fill-rule="evenodd" clip-rule="evenodd" d="M110.842 27.0195C111.313 27.07 112.172 27.2888 112.778 27.5243C113.384 27.7431 114.394 28.3321 115.051 28.8201C115.707 29.3082 117.29 30.6881 118.586 31.8829C119.883 33.0778 125.253 38.2946 130.54 43.4778C135.81 48.6441 149.447 62.1742 160.811 73.5166C172.192 84.859 184.55 97.2785 188.27 101.115C192.008 104.952 195.964 109.092 197.092 110.287C198.204 111.482 199.652 113.114 200.308 113.905C200.982 114.713 201.605 115.655 201.756 116.093C201.891 116.513 202.009 117.187 202.009 117.607C202.025 118.112 201.891 118.55 201.638 118.937C201.419 119.256 200.948 119.761 200.578 120.047C200.039 120.468 199.685 120.603 198.81 120.687C198.204 120.754 193.708 120.872 188.792 120.973C183.876 121.074 178.388 121.192 176.586 121.242C174.785 121.293 173.185 121.411 173.051 121.495C172.832 121.612 172.781 122.504 172.68 127.065C172.613 130.06 172.478 139.131 172.377 147.225C172.276 155.32 172.125 163.886 172.041 166.242C171.956 168.598 171.805 171.408 171.704 172.468C171.603 173.528 171.401 174.824 171.266 175.329C171.115 175.834 170.761 176.625 170.475 177.079C170.172 177.534 169.515 178.274 169.01 178.728C168.505 179.183 167.512 179.839 166.821 180.192C166.131 180.563 165.138 180.967 164.633 181.118C164.128 181.269 162.562 181.455 161.181 181.556C159.784 181.64 154.531 181.774 140.322 181.976L138.049 183.878C136.786 184.921 134.732 186.469 133.486 187.294C132.24 188.135 130.001 189.414 128.52 190.138C127.038 190.879 124.917 191.77 123.806 192.141C122.694 192.511 121.028 192.965 120.102 193.15C119.176 193.335 117.509 193.571 116.398 193.689C115.085 193.807 112.559 193.857 109.242 193.79C105.101 193.723 103.703 193.638 102.003 193.352C100.841 193.15 99.1409 192.763 98.2149 192.477C97.2889 192.191 95.6222 191.585 94.511 191.114C93.3998 190.643 92.0025 190.02 91.3964 189.717C90.7903 189.414 89.5107 188.64 88.5342 187.984C87.5578 187.328 85.5206 185.796 83.9885 184.585C82.4565 183.356 81.0759 182.296 80.9076 182.212C80.756 182.128 77.7592 181.993 74.2742 181.892C70.7723 181.808 66.1256 181.64 63.9538 181.556C61.7819 181.455 59.2902 181.303 58.4316 181.219C57.5898 181.118 56.5459 180.967 56.125 180.882C55.7041 180.798 54.896 180.495 54.3068 180.226C53.7343 179.974 52.7747 179.385 52.1854 178.93C51.5962 178.476 50.8049 177.735 50.4345 177.264C50.0809 176.81 49.5927 176.053 48.9193 174.74L48.7846 167.42C48.7172 163.398 48.5657 152.863 48.4478 144.028C48.3468 135.193 48.2121 126.476 48.0438 121.394L45.5184 121.276C44.121 121.225 38.9019 121.074 33.9016 120.973C28.9013 120.855 23.8842 120.721 20.7022 120.552L20.0961 119.963C19.7762 119.644 19.389 119.122 19.2543 118.836C19.1196 118.533 19.0018 117.877 19.0018 117.405C18.9849 116.715 19.0859 116.362 19.4395 115.84C19.692 115.47 20.3991 114.561 21.0221 113.821C21.645 113.08 23.2276 111.263 24.5576 109.782C25.8877 108.301 27.9248 106.063 29.0865 104.818C30.2482 103.572 33.1776 100.51 35.5852 98.0021C37.9927 95.5115 41.865 91.5231 48.3805 84.8254L48.5152 72.894C48.5825 66.3477 48.7172 59.5826 48.8014 57.8661C48.9024 56.1496 49.0708 54.3321 49.1886 53.8273C49.3065 53.3224 49.5253 52.6998 49.6937 52.4473C49.8957 52.1108 50.2661 51.892 51.0406 51.6564C51.613 51.4713 52.842 51.2525 53.768 51.1516C54.694 51.0506 57.2699 50.8991 59.4922 50.7982C62.3543 50.6635 64.3747 50.6635 66.4455 50.7813C68.7183 50.9328 69.4759 51.0338 69.981 51.2862C70.3177 51.4713 70.8397 51.8584 71.1427 52.1781C71.4458 52.481 71.7993 53.0027 71.934 53.3224C72.0519 53.6422 72.2539 54.4836 72.3549 55.1736C72.4391 55.8635 72.5906 57.3276 72.6579 58.4383C72.7253 59.5321 72.8431 60.4577 72.9273 60.4914C72.9947 60.525 73.3987 60.2389 73.8533 59.8519C74.291 59.4648 77.9108 55.914 81.884 51.9761C85.8573 48.0383 91.6994 42.2661 94.8477 39.1697C97.9961 36.0564 101.447 32.6907 102.508 31.6978C103.569 30.7049 105.017 29.426 105.707 28.8875C106.397 28.3321 107.239 27.7599 107.559 27.6085C107.879 27.4739 108.569 27.2551 109.074 27.1373C109.579 27.0195 110.37 26.969 110.842 27.0195ZM109.832 50.5962C109.68 51.6732 109.411 53.3561 109.226 54.3321C109.024 55.3082 108.552 57.2435 108.148 58.6234C107.744 60.0202 107.037 62.1406 106.566 63.3354C106.094 64.5302 105.118 66.7347 104.394 68.2156C103.67 69.6966 102.559 71.7496 101.919 72.7593C101.296 73.769 99.7975 76.0409 98.5853 77.8079C97.39 79.5749 94.713 83.3108 92.6591 86.138C90.6051 88.9652 87.6419 93.0208 86.093 95.1412C84.5273 97.2616 82.3218 100.375 81.2106 102.041C79.6449 104.363 78.6852 106.029 77.1195 109.193C76.0083 111.465 74.7793 114.073 74.4257 114.999C74.0553 115.924 73.4324 117.675 73.0452 118.869C72.6579 120.064 72.1192 121.966 71.8498 123.077C71.5804 124.187 71.2942 125.769 71.1932 126.611C71.0922 127.452 70.9575 130.027 70.907 132.332C70.8397 134.974 70.8902 137.549 71.008 139.232C71.1259 140.713 71.3616 142.985 71.5468 144.28C71.732 145.576 72.035 147.478 72.2202 148.488C72.4222 149.497 72.8431 151.214 73.163 152.274C73.4829 153.334 74.1563 155.269 74.6783 156.565C75.1833 157.861 75.9915 159.679 76.4629 160.604C76.9343 161.53 78.1465 163.499 79.1229 164.979C80.1163 166.46 81.5642 168.429 82.3386 169.338C83.1636 170.331 84.5778 171.711 85.7731 172.704C86.9012 173.646 88.4164 174.824 89.1403 175.363C89.8643 175.884 90.9923 176.625 91.6489 177.029C92.3055 177.416 93.6187 178.139 94.5952 178.611C95.5717 179.099 97.0869 179.805 97.9624 180.176C98.8379 180.546 100.134 181.034 100.825 181.269C101.515 181.505 102.693 181.858 103.434 182.044C104.175 182.229 105.539 182.447 106.465 182.548C107.391 182.633 109.36 182.75 110.842 182.818C112.323 182.868 114.411 182.835 115.472 182.75C116.532 182.649 118.469 182.38 119.765 182.145C121.061 181.909 123.065 181.421 124.226 181.051C125.422 180.68 127.307 179.89 128.604 179.233C129.85 178.594 131.634 177.584 132.56 176.995C133.486 176.389 134.917 175.329 135.759 174.622C136.601 173.932 137.88 172.721 138.621 171.946C139.362 171.189 139.867 170.533 139.766 170.499C139.648 170.466 138.47 171.021 137.156 171.711C135.826 172.401 133.84 173.259 132.729 173.629C130.978 174.235 130.388 174.336 128.267 174.504C126.92 174.605 124.883 174.639 123.721 174.589C121.987 174.504 121.196 174.37 119.26 173.831C117.964 173.461 116.33 172.939 115.64 172.653C114.95 172.367 113.973 171.879 113.468 171.576C112.963 171.29 111.701 170.196 110.657 169.187C109.343 167.891 108.434 166.831 107.677 165.653C107.071 164.727 106.229 163.246 105.808 162.371C105.387 161.496 104.865 160.133 104.629 159.342C104.411 158.551 104.091 157.003 103.922 155.892C103.72 154.462 103.636 152.796 103.636 150.17C103.636 147.31 103.72 145.845 104.007 143.691C104.209 142.16 104.562 139.972 104.781 138.811C105 137.65 105.337 136.068 105.539 135.277C105.741 134.486 106.431 132.248 107.087 130.313C107.744 128.378 109.562 123.295 111.128 119.038C112.711 114.78 114.647 109.361 115.421 107.005C116.213 104.649 117.021 101.923 117.24 100.947C117.458 99.971 117.761 98.4565 117.896 97.5814C118.031 96.7063 118.283 94.9561 118.435 93.7108C118.654 91.9102 118.721 90.0254 118.721 84.6234C118.704 78.6661 118.671 77.4881 118.351 75.1995C118.166 73.769 117.745 71.3121 117.425 69.7302C117.105 68.1483 116.532 65.6241 116.162 64.0927C115.792 62.5613 115.219 60.4072 114.883 59.2965C114.546 58.1859 114.226 57.2266 114.159 57.1593C114.091 57.092 113.99 57.58 113.906 58.2532C113.839 58.9263 113.67 61.1308 113.536 63.1671C113.384 65.2033 113.132 68.6868 112.93 70.9082C112.744 73.1296 112.475 75.6707 112.34 76.5457C112.206 77.4208 111.852 79.0532 111.583 80.1639C111.296 81.2746 110.775 83.092 110.404 84.2027C110.034 85.3134 109.074 87.5852 108.249 89.2513C107.424 90.9173 106.111 93.3742 105.337 94.7205C104.562 96.0668 102.643 99.3147 101.077 101.957C99.5113 104.599 97.4068 108.15 96.3966 109.866C95.4033 111.583 93.9554 114.225 93.181 115.756C92.4234 117.288 91.3964 119.559 90.9081 120.805C90.403 122.05 89.7464 123.867 89.4266 124.844C89.1067 125.82 88.2817 128.849 87.5746 131.575C86.8843 134.301 86.2782 136.573 86.2446 136.623C86.2109 136.674 86.1435 136.674 86.093 136.623C86.0425 136.573 86.1267 135.26 86.2614 133.678C86.4129 132.097 86.6655 129.623 86.8507 128.176C87.0359 126.711 87.3726 124.709 87.6083 123.716C87.844 122.706 88.4501 120.687 88.9551 119.206C89.4434 117.725 90.3525 115.335 90.9755 113.905C91.5816 112.475 92.9453 109.631 93.9891 107.594C95.0329 105.558 97.39 101.25 99.2251 98.0021C101.06 94.771 103.215 90.8331 104.04 89.2513C104.848 87.6694 105.875 85.5153 106.313 84.4551C106.751 83.3949 107.458 81.4597 107.912 80.1639C108.35 78.8681 108.906 77.0506 109.141 76.125C109.377 75.1995 109.748 73.3147 109.983 71.9179C110.219 70.538 110.488 68.5186 110.606 67.4584C110.724 66.2635 110.808 62.2752 110.825 57.0247C110.842 50.5457 110.791 48.4085 110.64 48.0719C110.522 47.8027 110.337 47.6007 110.253 47.6007C110.168 47.6007 110.084 47.8363 110.084 48.1056C110.084 48.3749 109.966 49.5024 109.832 50.5962ZM122.745 75.3678C122.829 76.2428 122.863 80.0292 122.829 83.782C122.762 88.7969 122.678 91.0856 122.476 92.4487C122.324 93.4584 122.021 95.3937 121.785 96.7399C121.55 98.0862 121.129 100.021 120.859 101.031C120.59 102.041 119.95 104.128 119.411 105.659C118.889 107.19 117.728 110.371 116.819 112.727C115.91 115.083 114.074 119.862 112.728 123.329C111.381 126.796 109.983 130.633 109.613 131.827C109.242 133.022 108.754 135.008 108.519 136.203C108.283 137.398 107.963 139.266 107.795 140.326C107.559 141.891 107.508 143.254 107.525 147.528C107.559 151.988 107.609 153.031 107.896 154.428C108.064 155.32 108.451 156.734 108.737 157.575C109.024 158.416 109.663 159.931 110.168 160.941C110.657 161.95 111.431 163.28 111.886 163.886C112.357 164.491 113.249 165.468 113.889 166.057C114.529 166.646 115.691 167.554 116.482 168.076C117.273 168.581 118.704 169.321 119.681 169.725C120.657 170.112 121.903 170.55 122.459 170.701C123.216 170.92 124.142 170.987 126.163 170.987C127.998 170.97 129.294 170.886 130.203 170.701C130.944 170.533 132.19 170.18 132.981 169.91C133.772 169.624 134.985 169.119 135.675 168.766C136.365 168.412 137.325 167.84 137.779 167.504C138.251 167.15 139.008 166.528 139.463 166.09C139.934 165.669 140.978 164.592 141.82 163.701C142.662 162.809 143.941 161.227 144.699 160.167C145.457 159.106 146.399 157.642 146.82 156.902C147.241 156.161 147.932 154.765 148.352 153.789C148.773 152.812 149.379 151.264 149.699 150.339C150.019 149.413 150.507 147.629 150.794 146.384C151.08 145.139 151.467 143.203 151.669 142.093C151.938 140.477 152.006 139.383 151.989 136.623C151.989 134.722 151.922 131.171 151.837 128.714C151.72 124.961 151.635 123.935 151.265 122.235C151.029 121.124 150.575 119.307 150.255 118.196C149.935 117.086 149.363 115.335 148.958 114.326C148.554 113.316 147.426 110.842 146.433 108.856C145.44 106.871 144.093 104.363 143.47 103.303C142.83 102.243 141.147 99.584 139.699 97.4131C138.268 95.2422 136.146 92.1289 135.001 90.5134C133.857 88.8979 131.971 86.2894 130.809 84.7076C129.664 83.1425 127.947 80.7865 127.004 79.4907C126.078 78.1949 124.765 76.2765 124.125 75.25C123.469 74.2066 122.896 73.3483 122.846 73.3483C122.779 73.3483 122.711 73.4493 122.661 73.5671C122.627 73.6681 122.661 74.4927 122.745 75.3678Z" fill="black"/>
</svg>
