<svg width="222" height="37" viewBox="0 0 222 37" fill="none" xmlns="http://www.w3.org/2000/svg">
<path d="M46.5367 31.9094C46.188 32.1107 45.8199 32.4127 45.723 32.5737C45.6262 32.7348 45.4131 33.238 45.2581 33.701C45.045 34.2848 45.0063 34.7276 45.1225 35.0094C45.2 35.2711 45.4325 35.6335 45.6068 35.8146C45.7812 36.0159 46.0911 36.177 46.3042 36.177C46.5173 36.177 47.0597 35.9153 47.5246 35.6133C48.0283 35.251 48.4351 34.7679 48.5901 34.3451C48.7257 33.9627 48.8226 33.3185 48.8226 32.8958C48.8226 32.4932 48.687 32.0101 48.532 31.849C48.377 31.688 48.0089 31.5471 47.7184 31.5471C47.4084 31.5471 46.8854 31.7081 46.5367 31.9094Z" fill="#0E0E0E"/>
<path d="M111.666 30.923C111.433 31.0036 111.065 31.3055 110.852 31.5672C110.62 31.8289 110.31 32.3925 110.155 32.7951C109.981 33.2179 109.845 33.7211 109.845 33.9023C109.826 34.1036 110.039 34.5263 110.271 34.8484C110.678 35.3718 110.794 35.412 111.492 35.2913C111.918 35.2309 112.383 35.0497 112.538 34.9289C112.693 34.788 112.964 34.3049 113.158 33.862C113.351 33.4192 113.526 32.7146 113.526 32.2919C113.526 31.8088 113.39 31.4062 113.138 31.1445C112.925 30.9231 112.596 30.7419 112.421 30.762C112.228 30.762 111.879 30.8425 111.666 30.923Z" fill="#0E0E0E"/>
<path d="M16.762 0.969613C16.1227 1.21117 15.0379 1.73455 14.3405 2.15728C13.6431 2.58001 12.8101 3.22417 12.4614 3.60664C12.132 3.96898 11.5703 4.8547 11.2022 5.55925C10.7179 6.54562 10.5435 7.18978 10.4854 8.17615C10.4467 8.90083 10.466 9.74629 10.5435 10.0684C10.6017 10.3703 10.9116 10.9138 11.2022 11.2762C11.5121 11.6184 12.2289 12.1418 12.8101 12.4035C13.7206 12.8061 14.0693 12.8664 15.4059 12.7658C16.452 12.7054 17.3625 12.5041 18.2149 12.1418C18.9123 11.8398 19.7066 11.3567 20.0165 11.0547C20.3071 10.7528 20.5396 10.4508 20.5396 10.3703C20.5396 10.2697 20.249 10.3905 19.9003 10.632C19.571 10.8534 18.7961 11.2762 18.2149 11.558C17.595 11.8398 16.6264 12.1015 15.8902 12.1619C15.1928 12.2223 14.263 12.1619 13.7981 12.0411C13.3525 11.9203 12.6745 11.5177 12.287 11.1755C11.8608 10.7528 11.5315 10.2093 11.3959 9.70603C11.299 9.26317 11.2603 8.45797 11.3378 7.89433C11.3959 7.35082 11.5509 6.60601 11.6865 6.28393C11.8027 5.96185 12.1902 5.23717 12.5389 4.67353C12.9069 4.08976 13.585 3.38521 14.1855 2.98261C14.7473 2.60014 15.8321 2.07676 16.5683 1.81507C17.3044 1.53325 18.6023 1.27156 19.416 1.21117C20.6752 1.11052 21.0432 1.15078 21.7406 1.51312C22.3993 1.8352 22.6705 2.13715 22.9998 2.94235C23.2517 3.50599 23.5035 4.4521 23.5616 5.03587C23.6197 5.59951 23.8328 6.38458 24.0459 6.74692C24.259 7.10926 24.7627 7.55212 25.2276 7.79368C25.77 8.03524 26.4868 8.19628 27.223 8.19628C28.2303 8.19628 28.6759 8.05537 30.4194 7.18978C31.5429 6.62614 32.6084 6.18328 32.7828 6.18328C32.9765 6.18328 33.1315 6.28393 33.1315 6.38458C33.1315 6.48523 31.9885 7.79368 30.5937 9.26317C29.1989 10.7125 27.8622 12.2424 27.6298 12.6249C27.3779 13.0074 27.0486 13.4703 26.8936 13.6314C26.7386 13.7924 26.2156 14.6178 25.7507 15.4431C25.2664 16.2684 24.3946 18.0399 23.7941 19.3684C23.1935 20.697 22.2637 22.8308 21.7019 24.099C21.1595 25.3672 20.5008 26.7561 20.2296 27.1789C19.9778 27.5815 19.7647 27.9841 19.7647 28.0847C19.7647 28.1652 19.261 28.8899 18.6411 29.7152C18.0406 30.5406 17.0138 31.7081 16.3745 32.2919C15.6772 32.9361 14.4761 33.7815 13.3912 34.325L11.5703 35.2711C7.92829 35.3919 6.5335 35.3114 6.10731 35.2107C5.68112 35.09 4.96436 34.7075 4.49942 34.3653C4.03449 34.0231 3.55019 33.4393 3.37584 32.9964C3.20149 32.5938 2.96902 31.6075 2.87216 30.8425C2.7753 30.0776 2.58158 29.2523 2.46535 29.0308C2.36849 28.8094 2.13602 28.5276 1.96167 28.3867C1.78732 28.2458 1.47737 28.125 1.26428 28.125C1.05118 28.125 0.702483 28.3062 0.48939 28.5276C0.160063 28.8899 0.121319 29.1114 0.256924 29.8964C0.334412 30.4198 0.644367 31.3458 0.934949 31.9295C1.22553 32.5334 1.84544 33.4192 2.32974 33.9023C2.81405 34.3854 3.72454 35.0497 4.36382 35.3718C5.0031 35.714 6.01045 36.0562 6.59162 36.177C7.17278 36.2978 8.35448 36.3179 9.20685 36.2575C10.0592 36.177 11.5315 35.875 12.5001 35.5731C13.4687 35.2711 15.0766 34.6068 16.084 34.1036C17.0913 33.6003 18.4474 32.7951 19.0867 32.2919C19.7259 31.7886 20.772 30.762 21.4113 30.0172C22.0506 29.2523 22.9223 28.0847 23.3679 27.4204C23.7941 26.7561 24.6271 25.1256 25.2276 23.797C25.8282 22.4685 26.6805 20.4756 27.1455 19.3684C27.6104 18.2613 28.2303 17.0535 28.5209 16.6911C29.0246 16.0872 29.1408 16.047 30.3612 16.047C31.1555 16.047 32.1435 16.208 32.8409 16.4295C33.6158 16.7113 34.2163 17.0736 34.6231 17.5567C34.9718 17.9392 35.3205 18.5028 35.398 18.8249C35.4561 19.1269 35.4174 19.771 35.3011 20.2743C35.1655 20.7775 34.1969 22.9918 33.1315 25.2061C32.0854 27.4204 31.1168 29.6347 31.0199 30.138C30.9037 30.6412 30.8068 31.3659 30.8068 31.7484C30.8068 32.1308 30.9037 32.7951 31.0005 33.2179C31.1168 33.6205 31.5236 34.325 31.911 34.788C32.3178 35.2309 32.9571 35.6939 33.3252 35.8146C33.6932 35.9354 34.3519 36.0361 34.7781 36.0361C35.2043 36.0159 36.076 35.7744 36.7153 35.4724C37.3546 35.1906 38.3038 34.6068 38.8462 34.2244C39.3693 33.8218 40.241 33.0367 40.7447 32.4731C41.2678 31.9094 42.0233 31.0036 42.4301 30.4399C42.8563 29.8964 43.3599 29.0711 43.5924 28.6282C43.8055 28.1854 43.9799 27.662 43.9799 27.4808C43.9799 27.2795 43.9217 27.1185 43.8249 27.1185C43.7474 27.1386 43.1469 27.9639 42.4882 28.9906C41.8296 30.0172 40.8222 31.386 40.2604 32.0302C39.6986 32.6945 38.7494 33.5802 38.1682 34.0432C37.5871 34.4861 36.8122 34.9692 36.4635 35.1101C36.1341 35.251 35.5917 35.3718 35.2624 35.3718C34.9331 35.3718 34.5069 35.2913 34.2938 35.1705C34.0807 35.0497 33.7707 34.5867 33.5964 34.1237C33.3058 33.2984 33.3058 33.1977 33.6739 32.0503C33.887 31.386 34.3906 30.1178 34.7781 29.2321C35.1655 28.3464 35.8436 26.7159 36.2891 25.6087C36.9478 23.9581 37.1027 23.3139 37.1609 21.9853C37.219 20.697 37.1415 20.1334 36.8122 19.1671C36.4828 18.2412 36.0954 17.6574 35.1462 16.7113C34.4681 16.0067 33.9257 15.4028 33.9451 15.3626C33.9838 15.3223 34.5262 14.8593 35.1655 14.3359C35.8048 13.8327 37.374 12.3833 38.6525 11.1353C39.9311 9.86707 41.2871 8.57875 41.6552 8.25667C42.0233 7.91446 42.895 7.25017 43.5924 6.74692C44.2898 6.24367 45.5103 5.41834 46.3045 4.91509C47.0988 4.41184 48.4936 3.70729 49.4041 3.36508C50.6632 2.86183 51.4769 2.68066 52.891 2.60014C54.6926 2.47936 54.7508 2.49949 55.7 3.12352C56.223 3.46573 56.8817 3.96898 57.1529 4.27093C57.4241 4.55275 57.8116 4.79431 58.0247 4.79431C58.2378 4.79431 58.6058 4.57288 58.8383 4.33132C59.0901 4.06963 59.2839 3.72742 59.2839 3.56638C59.2839 3.40534 59.1289 3.02287 58.8964 2.72092C58.6833 2.39884 58.1409 2.01637 57.676 1.8352C57.0367 1.57351 56.378 1.53325 54.4408 1.61377C53.1041 1.67416 51.4962 1.87546 50.857 2.05663C50.2177 2.2378 48.8616 2.80144 47.8543 3.28456C46.8469 3.78781 45.4134 4.61314 44.6579 5.11639C43.9024 5.63977 42.7013 6.52549 41.9458 7.08913C41.2096 7.6729 39.4661 9.24304 38.0714 10.6119C36.6766 11.9606 35.1655 13.3496 34.6812 13.6918C34.1969 14.034 33.4608 14.4768 33.0346 14.658C32.6084 14.8593 31.7367 15.0807 31.0974 15.1613C30.4581 15.2418 29.7801 15.2217 29.6057 15.121C29.3151 14.96 29.3733 14.7385 30.0513 13.0275C30.4775 11.9807 31.0005 10.7125 31.2524 10.2093C31.4848 9.72616 32.7634 8.15602 34.1001 6.72679C35.4367 5.29756 37.1415 3.6469 37.8776 3.08326C38.6138 2.49949 39.408 1.95598 39.6211 1.89559C39.8342 1.81507 39.9505 1.71442 39.8536 1.65403C39.7761 1.59364 39.2531 1.81507 38.6913 2.11702C38.1488 2.4391 36.8122 3.26443 35.7467 3.94885C34.6812 4.61314 33.1508 5.39821 32.3566 5.68003C31.4848 5.98198 30.4581 6.18328 29.7801 6.18328C29.1602 6.18328 28.4047 6.04237 28.0366 5.8612C27.7073 5.68003 27.2036 5.33782 26.9711 5.09626C26.7193 4.87483 26.2737 4.13002 25.9831 3.46573C25.6538 2.72092 25.1695 2.01637 24.6852 1.61377C24.2784 1.25143 23.5616 0.868963 23.0967 0.748183C22.6511 0.647533 21.2951 0.546883 20.094 0.546883C18.4086 0.567013 17.6531 0.647533 16.762 0.969613Z" fill="#0E0E0E"/>
<path fill-rule="evenodd" clip-rule="evenodd" d="M84.9522 0.224806C86.3664 0.265066 87.1219 0.405976 87.7612 0.687795C88.2455 0.909225 88.846 1.33196 89.1172 1.63391C89.3884 1.93586 89.9502 2.92222 90.3764 3.82807C90.9188 4.99561 91.345 5.61964 91.8293 5.94172C92.4105 6.36445 92.6817 6.40471 93.7665 6.32419C94.4639 6.2638 95.7231 6.00211 96.5755 5.70016C97.4666 5.39821 99.1714 4.55275 100.605 3.66703C101.961 2.84171 103.104 2.17742 103.143 2.19755C103.201 2.23781 102.135 3.24431 100.779 4.47223C99.4426 5.68003 97.5441 7.65277 96.5755 8.82031C95.6263 9.98785 94.2702 11.719 93.5728 12.645C92.8948 13.571 92.0037 14.9801 91.5969 15.745C91.19 16.51 90.9188 17.2145 90.9963 17.2749C91.0932 17.3554 92.1586 17.0535 93.3791 16.6308C94.5995 16.1879 96.5561 15.584 97.7378 15.282C99.5782 14.7989 99.9269 14.658 100.469 14.034C100.818 13.6515 101.36 12.9671 101.67 12.5242C101.98 12.0814 102.368 11.5983 102.542 11.4573C102.716 11.3366 102.833 11.1151 102.775 11.0145C102.716 10.9138 102.833 10.7528 103.007 10.6521C103.201 10.5716 103.782 10.0281 104.324 9.42421C104.847 8.82031 105.603 8.01511 105.971 7.63264C106.339 7.2703 107.424 6.34432 108.393 5.59951C109.361 4.8547 110.833 3.78782 111.686 3.24431C112.538 2.68067 113.72 2.01638 114.301 1.77482C115.018 1.45274 115.89 1.27157 117.013 1.19105C118.544 1.11053 118.698 1.13066 119.241 1.59365C119.551 1.87547 119.88 2.25794 119.938 2.47937C120.016 2.68067 119.9 3.36508 119.706 3.96898C119.493 4.63327 119.067 5.37808 118.621 5.84107C118.214 6.2638 117.323 7.04887 116.626 7.57226C115.928 8.11577 114.766 8.90084 114.01 9.34369C113.255 9.76642 111.744 10.5314 110.62 11.0547C109.497 11.558 107.598 12.3229 106.378 12.7457C104.247 13.5106 104.15 13.571 103.181 14.7385C102.639 15.4028 101.748 16.8522 101.205 17.9593C100.644 19.0665 99.8494 20.8782 99.4232 21.9853C98.997 23.0925 98.4352 24.8237 98.164 25.81C97.8928 26.7964 97.5635 28.2055 97.4279 28.9302C97.3116 29.6549 97.2535 30.6412 97.2923 31.1445C97.3504 31.6477 97.5829 32.4127 97.7766 32.8555C98.0672 33.4393 98.3771 33.7614 98.9776 34.0029C99.4038 34.2042 99.9075 34.3653 100.062 34.3653C100.217 34.3653 100.857 34.1841 101.457 33.9627C102.077 33.7412 102.93 33.2984 103.336 32.9964C103.763 32.6945 104.983 31.4062 106.048 30.138C107.366 28.6081 108.024 27.9438 108.044 28.1854C108.083 28.3665 107.986 28.7691 107.831 29.0711C107.676 29.3932 107.327 29.8964 107.036 30.2386C106.746 30.5607 105.971 31.4263 105.293 32.151C104.402 33.1172 103.627 33.7211 102.31 34.4055C100.644 35.3315 100.469 35.3718 98.997 35.3718C98.1446 35.3718 97.1567 35.251 96.808 35.1101C96.4786 34.949 95.8975 34.5062 95.5488 34.1036C95.2194 33.6809 94.8514 33.0166 94.7351 32.5938C94.6383 32.1912 94.5414 31.2049 94.5414 30.4399C94.5414 29.6549 94.677 28.1652 94.8514 27.1185C95.0257 26.0717 95.3744 24.5217 95.6456 23.6964C95.9168 22.8711 96.7305 20.8983 97.4666 19.308C98.2028 17.7379 98.8033 16.2885 98.8033 16.0872C98.8033 15.8054 98.7064 15.7652 98.0865 15.8859C97.6797 15.9665 95.7038 16.6106 93.7084 17.295C90.1439 18.523 90.0471 18.5834 89.5628 19.3684C89.2722 19.8113 88.5361 21.2204 87.8968 22.4886C87.2575 23.7568 86.1727 25.6691 85.514 26.7159C84.836 27.7626 83.7705 29.2523 83.1312 30.0373C82.4919 30.8023 81.504 31.849 80.9422 32.3523C80.3804 32.8555 79.2568 33.6406 78.4625 34.1237C77.6683 34.5867 76.2735 35.2107 75.363 35.5127C74.2394 35.875 73.2514 36.0361 72.2635 36.0562C71.1592 36.0763 70.6362 35.9757 70.055 35.6737C69.6482 35.4523 69.1445 34.949 68.9314 34.5666C68.6409 34.0231 68.5827 33.6003 68.6409 32.7549C68.699 32.0101 68.9314 31.2451 69.377 30.3594C69.7644 29.5945 70.5006 28.6081 71.198 27.9438C71.8373 27.3198 73.019 26.3737 73.8132 25.8302C74.6075 25.2867 75.5761 24.6425 75.9442 24.4009C76.3122 24.1594 77.2227 23.5957 77.9782 23.173C78.7337 22.7301 80.206 21.9451 81.2715 21.4418C82.337 20.9184 84.003 20.2139 84.9522 19.8516C85.9014 19.5093 86.8701 19.0061 87.0831 18.7645C87.2962 18.523 87.8193 17.7983 88.2455 17.1541C88.6717 16.5301 89.3303 15.6041 89.6984 15.121C90.0665 14.6379 91.0544 13.41 91.8681 12.3833C92.7011 11.3567 94.1152 9.76642 95.0257 8.84044C95.9362 7.93459 96.6724 7.08913 96.6724 6.98848C96.6724 6.8677 96.343 6.88784 95.8394 7.06901C95.3938 7.20992 94.3283 7.59238 93.476 7.89433C92.4299 8.2768 91.5 8.45797 90.6282 8.4781C89.6209 8.49823 89.2335 8.41771 88.8073 8.09563C88.5167 7.8742 88.1292 7.37095 87.9355 6.98848C87.7418 6.60601 87.5093 5.4586 87.4125 4.47223C87.3156 3.46573 87.0831 2.35859 86.9088 1.99625C86.7344 1.65404 86.3083 1.17092 85.9596 0.929355C85.4171 0.567015 85.1266 0.526756 83.4024 0.607276C81.6202 0.707926 81.349 0.768315 79.8573 1.53326C78.6175 2.17742 78.0945 2.58002 77.4746 3.40535C77.029 3.98912 76.4866 4.87483 76.2735 5.37808C76.041 5.94172 75.9054 6.72679 75.9054 7.49173C75.9054 8.19628 76.041 8.98135 76.2154 9.34369C76.3897 9.70603 76.9321 10.2898 77.4358 10.6119C77.9589 10.9541 78.6756 11.3164 79.0437 11.4573C79.4311 11.5781 80.2641 11.6184 80.9809 11.558C81.6783 11.4976 82.8019 11.2359 83.4993 10.9541C84.1967 10.6723 84.9716 10.3905 85.7271 10.169L85.3397 10.5918C85.1266 10.8333 84.3517 11.2359 83.5962 11.4976C82.8406 11.7593 81.7171 12.0411 81.0778 12.1216C80.4385 12.2022 79.4311 12.1619 78.85 12.0411C78.2494 11.9203 77.3583 11.5379 76.8159 11.1755C76.1766 10.7327 75.6923 10.2093 75.4017 9.60538C75.0337 8.8807 74.9562 8.4781 75.0337 7.49173C75.0724 6.78718 75.3049 5.82094 75.5955 5.17678C75.8667 4.57288 76.4285 3.66704 76.8547 3.16379C77.3002 2.66054 78.2494 1.91573 78.9662 1.51313C79.7024 1.0904 80.9034 0.627406 81.6589 0.446236C82.5113 0.265066 83.7318 0.184546 84.9522 0.224806ZM113.623 3.16379C112.867 3.64691 111.705 4.51249 111.008 5.07613C110.31 5.63977 109.051 6.92809 108.199 7.93459C107.346 8.94109 106.378 10.1086 106.048 10.5314C105.719 10.9742 105.332 11.5379 105.196 11.8197L104.925 12.3229C106.107 12.0612 107.366 11.5781 108.489 11.095C109.613 10.6119 111.356 9.78655 112.364 9.26317C113.371 8.73979 114.65 7.99498 115.173 7.61251C115.696 7.23004 116.529 6.54562 116.994 6.10276C117.459 5.63977 118.079 4.87483 118.389 4.37158C118.698 3.86834 118.95 3.22418 118.95 2.9021C118.95 2.60015 118.815 2.27807 118.602 2.17742C118.427 2.07677 117.962 1.93586 117.594 1.87547C117.226 1.83521 116.471 1.8956 115.948 2.03651C115.405 2.17742 114.379 2.68067 113.623 3.16379ZM82.4338 21.462C82.3176 21.5425 81.9302 21.7438 81.5621 21.8847C81.194 22.0457 79.5668 22.9314 77.9782 23.8776C76.3703 24.8237 74.4719 26.0516 73.7164 26.6152C72.9608 27.199 71.9922 28.0847 71.5273 28.6081C71.0818 29.1113 70.4425 29.9568 70.1325 30.4802C69.687 31.225 69.5514 31.688 69.5514 32.4529C69.532 33.1575 69.6482 33.6205 69.9388 34.0029C70.1519 34.325 70.6556 34.6672 71.0624 34.788C71.6048 34.9692 72.0891 34.9692 73.0383 34.7679C73.7357 34.6471 74.8981 34.2042 75.6342 33.8016C76.5253 33.3051 77.3971 32.5871 78.2494 31.6477C78.9468 30.8627 80.0898 29.4737 80.7872 28.5276C81.4846 27.5815 82.7244 25.7698 83.5187 24.5016C84.3323 23.2334 85.2815 21.7035 85.6109 21.1197C85.9402 20.5561 86.2114 20.0327 86.2114 19.9723C86.2114 19.9119 86.1533 19.8717 86.0758 19.8918C85.9789 19.8918 85.1847 20.2139 84.2742 20.5964C83.3637 20.9788 82.5501 21.3613 82.4338 21.462Z" fill="#0E0E0E"/>
<path d="M134.545 0.627406C133.905 0.768316 132.821 1.15079 132.143 1.47287C131.251 1.8956 130.69 2.31833 130.186 2.96249C129.799 3.46574 129.372 4.23068 129.237 4.67354C129.082 5.13653 129.004 6.00212 129.043 6.7268C129.12 7.81382 129.198 8.05538 129.799 8.69954C130.167 9.10214 130.825 9.62552 131.251 9.86708C131.891 10.2093 132.356 10.2898 133.867 10.2898C135.397 10.2697 135.881 10.1892 136.734 9.78656C137.296 9.52487 137.76 9.24305 137.741 9.1424C137.741 9.06188 137.644 9.00149 137.547 9.00149C137.451 9.00149 136.811 9.18266 136.133 9.42422C135.281 9.72617 134.603 9.82682 133.77 9.76643C133.053 9.72617 132.259 9.50474 131.658 9.20279C131.038 8.86058 130.573 8.43785 130.263 7.89434C129.973 7.39109 129.799 6.76706 129.799 6.18329C129.799 5.55926 129.953 4.9151 130.341 4.17029C130.632 3.56639 131.232 2.78132 131.658 2.45924C132.065 2.11703 132.937 1.63391 133.576 1.37222C134.215 1.13066 135.397 0.868966 136.191 0.808576C137.179 0.728056 137.954 0.768316 138.593 0.969616C139.155 1.13066 139.736 1.47287 140.008 1.79495C140.414 2.31833 140.453 2.53976 140.453 4.41185C140.434 6.18329 140.492 6.56576 140.841 7.02875C141.054 7.35083 141.519 7.67291 141.848 7.79369C142.294 7.9346 142.836 7.91447 143.65 7.71317C144.289 7.57226 145.587 7.20992 146.555 6.90797C147.524 6.62615 148.338 6.42485 148.396 6.48524C148.454 6.54563 148.183 6.90797 147.815 7.31057C147.447 7.71317 146.672 8.41772 146.11 8.88071C145.529 9.32357 144.754 9.96773 144.366 10.2697C143.979 10.5918 142.952 11.5379 142.08 12.3833C141.228 13.2288 139.872 14.6983 139.078 15.6444C138.284 16.5905 137.276 17.8587 136.85 18.4626C136.424 19.0665 135.726 20.1132 135.32 20.7775C134.913 21.4418 134.312 22.4483 134.002 22.9918C133.692 23.5555 132.937 24.9042 132.356 26.0113C131.774 27.1185 130.477 29.675 129.489 31.7081C128.481 33.7211 127.764 35.3718 127.861 35.3718C127.958 35.3718 128.249 35.2711 128.501 35.1503C128.733 35.0094 128.966 34.8484 129.024 34.7679C129.082 34.6874 130.128 33.4997 131.348 32.1308C132.569 30.762 134.603 28.5477 135.901 27.2191C137.179 25.8906 139.407 23.6561 140.841 22.247C142.274 20.8379 143.708 19.4892 144.037 19.2275C144.347 18.9658 146.129 17.3756 148.008 15.6645C149.868 13.9736 152.173 12.0411 153.142 11.397C154.111 10.7327 154.944 10.2093 155.04 10.2093C155.118 10.2093 155.176 10.3502 155.176 10.5112C155.176 10.6723 154.498 12.2022 153.665 13.8931C152.638 16.0067 151.825 18.0399 151.069 20.4756C150.449 22.4081 149.461 25.5886 148.861 27.5211C148.28 29.4536 147.543 31.6276 147.233 32.3523C146.923 33.077 146.633 33.9023 146.575 34.2042C146.497 34.627 146.536 34.7679 146.749 34.7679C146.904 34.7679 147.698 33.8419 148.493 32.6945C149.306 31.5672 150.546 29.8763 151.263 28.9503C151.98 28.0243 152.735 27.038 152.948 26.7561C153.161 26.4743 154.285 25.1055 155.447 23.7165C156.629 22.3275 158.45 20.2743 159.515 19.1671C160.6 18.0399 162.692 16.0067 164.184 14.6178C165.676 13.2489 167.342 11.7392 167.865 11.2963C168.388 10.8534 169.841 9.7463 171.061 8.86058C172.282 7.99499 173.793 6.94823 174.413 6.56576C175.032 6.18329 175.769 5.74043 176.059 5.55926C176.35 5.39822 177.144 4.95536 177.841 4.57289C178.539 4.19042 179.488 3.7073 179.972 3.506C180.457 3.3047 181.445 2.92223 182.2 2.64041C183.033 2.33846 183.982 2.15729 184.68 2.15729C185.474 2.15729 186.268 2.35859 187.469 2.84171C188.419 3.20405 189.6 3.58652 190.143 3.66704C190.937 3.76769 191.169 3.72743 191.46 3.42548C191.654 3.22418 191.809 2.78132 191.789 2.41898C191.789 1.93586 191.634 1.61378 191.208 1.25144C190.86 0.949486 190.259 0.687796 189.697 0.627406C189.194 0.546886 187.915 0.526756 186.849 0.587146C185.28 0.667666 184.505 0.828706 182.781 1.43261C181.619 1.85534 179.779 2.60015 178.713 3.1034C177.648 3.60665 176.175 4.37159 175.42 4.81445C174.664 5.25731 173.502 6.00212 172.805 6.46511C172.107 6.90797 170.577 7.99499 169.415 8.88071C168.252 9.7463 166.799 10.8937 166.218 11.397C165.637 11.9002 164.32 13.0677 163.312 14.0139C162.305 14.96 161.298 15.9061 161.065 16.1275C160.852 16.3691 159.244 17.9795 157.539 19.7106C155.815 21.462 154.304 22.8912 154.207 22.8912C154.111 22.8912 154.014 22.7301 154.014 22.5288C154.014 22.3477 154.207 21.462 154.479 20.5762C154.73 19.6905 155.35 17.8788 155.873 16.5502C156.377 15.2217 157.152 13.4905 157.559 12.7255C157.985 11.9606 158.702 10.7729 159.147 10.1086C159.612 9.44435 160.523 8.35733 161.22 7.69304C161.898 7.02875 163.138 5.88134 163.99 5.13653C164.843 4.37159 166.276 3.24431 167.187 2.60015C168.097 1.95599 168.853 1.27157 168.872 1.0904C168.911 0.868966 168.795 0.748186 168.543 0.748186C168.33 0.748186 167.477 1.0904 166.644 1.51313C165.831 1.93586 164.281 2.78132 163.215 3.36509C162.15 3.96899 159.574 5.63978 157.501 7.08914C155.428 8.5385 153.413 9.9476 153.045 10.2093C152.677 10.4911 151.495 11.4372 150.43 12.3229C149.364 13.1885 147.524 14.7989 146.362 15.8658C145.199 16.9327 142.449 19.4288 140.259 21.4016C138.07 23.3542 136.269 24.8639 136.23 24.7431C136.211 24.6022 136.521 23.9178 136.908 23.2133C137.315 22.4886 138.245 21.0191 138.981 19.9321C139.717 18.8451 140.666 17.4762 141.112 16.8924C141.538 16.3087 142.565 15.0002 143.34 13.9736C144.134 12.9671 146.362 10.4508 148.28 8.41772C150.217 6.38459 152.483 4.17029 153.336 3.46574C154.188 2.78132 155.157 2.07677 155.467 1.91573C155.777 1.73456 156.183 1.45274 156.338 1.27157C156.493 1.0904 156.571 0.889096 156.474 0.848836C156.396 0.788446 155.796 1.03001 155.118 1.37222C154.459 1.71443 152.832 2.64041 151.495 3.44561C150.159 4.23068 148.628 5.03588 148.105 5.21705C147.563 5.41835 146.769 5.55926 146.304 5.57939C145.703 5.57939 145.354 5.43848 144.948 5.09627C144.657 4.81445 144.211 4.02938 143.94 3.32483C143.553 2.2982 143.282 1.93586 142.584 1.43261C142.1 1.0904 141.247 0.707926 140.686 0.587146C140.143 0.446236 138.787 0.345586 137.683 0.365716C136.598 0.365716 135.184 0.486496 134.545 0.627406Z" fill="#0E0E0E"/>
<path fill-rule="evenodd" clip-rule="evenodd" d="M191.402 10.2093L188.67 14.3963C187.179 16.6911 185.474 19.2477 184.912 20.073C184.331 20.8983 183.866 21.7035 183.866 21.8444C183.847 22.0256 184.273 22.086 185.397 22.086C186.249 22.086 186.946 22.1464 186.946 22.2269C186.966 22.3275 186.772 22.5691 186.54 22.7905C186.191 23.1529 185.958 23.173 184.583 23.0925C183.091 22.9918 183.014 23.012 182.646 23.4951C182.452 23.7769 181.987 24.4613 181.638 25.0048C181.29 25.5483 180.612 26.6957 180.127 27.5211C179.624 28.3464 178.868 29.7958 178.442 30.7419C177.996 31.688 177.648 32.614 177.648 32.8153C177.648 32.9964 177.822 33.3386 178.035 33.5601C178.268 33.8016 178.674 33.9627 179.043 33.9627C179.43 33.9627 180.166 33.6607 180.922 33.2179C181.6 32.7951 182.685 31.9497 183.343 31.3458C184.002 30.7419 184.719 30.0575 184.97 29.836C185.319 29.5139 185.416 29.4938 185.397 29.7354C185.397 29.8964 184.757 30.6614 183.982 31.4062C183.227 32.151 182.471 32.775 182.336 32.7549C182.22 32.7549 182.103 32.8153 182.103 32.8958C182.103 32.9964 181.561 33.3588 180.902 33.701C180.224 34.0633 179.12 34.4659 178.423 34.5867C177.357 34.7679 177.067 34.7477 176.524 34.4861C176.195 34.3049 175.788 33.9224 175.633 33.6003C175.497 33.2984 175.323 32.7146 175.246 32.2919C175.187 31.8893 175.033 31.5471 174.936 31.5471C174.839 31.5471 174.238 31.9899 173.618 32.5133C173.018 33.0568 172.049 33.7815 171.487 34.1237C170.848 34.5263 170.112 34.8081 169.453 34.8887C168.582 34.9893 168.368 34.949 167.884 34.5464C167.574 34.2848 167.109 33.6406 166.819 33.1172C166.547 32.5737 166.257 32.151 166.16 32.151C166.083 32.151 165.308 32.6542 164.417 33.2783C163.545 33.9023 162.441 34.6068 161.956 34.8283C161.395 35.0698 160.62 35.2309 159.825 35.2309C159.128 35.2309 158.372 35.1302 158.121 35.0094C157.888 34.8685 157.52 34.4055 157.307 33.9627C157.049 33.4259 156.823 33.191 156.629 33.2581C156.455 33.3185 156.338 33.238 156.338 33.0568C156.338 32.8958 156.842 31.7282 157.443 30.4802C158.334 28.6685 158.818 27.9438 159.922 26.8165C160.93 25.7496 161.685 25.186 162.925 24.562C164.068 23.9782 164.978 23.6561 165.928 23.5353C166.683 23.4347 167.632 23.4347 168.059 23.5152C168.485 23.6159 168.892 23.6762 168.969 23.6964C169.066 23.6964 169.356 24.099 169.647 24.6022C169.957 25.1055 170.306 25.5081 170.422 25.5081C170.558 25.5081 170.771 25.3068 170.887 25.0451C171.003 24.8035 171.332 24.3607 171.623 24.0386C172.03 23.5756 172.282 23.4951 173.037 23.4951C173.56 23.4951 173.967 23.5353 173.967 23.5957C173.967 23.6561 173.638 24.2198 173.212 24.8438C172.805 25.4879 172.165 26.5146 171.797 27.1185C171.41 27.7224 170.693 29.051 170.209 30.0373C169.705 31.0237 169.24 32.1711 169.182 32.5536C169.085 33.0971 169.163 33.3588 169.492 33.701C169.705 33.9627 170.093 34.164 170.325 34.164C170.577 34.164 171.119 33.9224 171.546 33.6003C171.972 33.2783 172.882 32.4328 173.56 31.7282C174.238 31.0237 175.42 29.5743 176.156 28.5276C176.912 27.4808 177.745 26.2931 178.016 25.9107C178.287 25.5282 178.771 24.8035 179.062 24.3003C179.488 23.5957 179.546 23.3542 179.352 23.2535C179.217 23.173 178.868 23.0925 178.558 23.0925C178.268 23.0925 178.035 23.0321 178.035 22.9314C178.035 22.8509 178.132 22.6697 178.268 22.5288C178.403 22.4081 178.888 22.2873 179.391 22.2873C180.244 22.2873 180.282 22.2672 181.154 21.0392C181.638 20.3347 182.161 19.5697 182.316 19.3483C182.452 19.1067 183.091 18.1606 183.711 17.2347C184.331 16.3087 185.106 15.1814 185.416 14.7385C185.726 14.2957 186.443 13.2489 186.985 12.4236C187.528 11.5983 188.109 10.7528 188.264 10.5515C188.496 10.2898 188.864 10.2093 191.402 10.2093ZM162.925 27.038C162.228 27.8029 161.259 29.0711 160.755 29.836C160.252 30.601 159.729 31.6679 159.593 32.1912C159.419 32.8757 159.399 33.2984 159.535 33.701C159.69 34.1237 159.883 34.2848 160.31 34.325C160.639 34.3653 161.317 34.2042 161.859 33.9627C162.382 33.7211 163.39 33.0568 164.087 32.4529C164.785 31.8692 165.753 30.9029 166.276 30.3191C166.78 29.7152 167.497 28.588 167.865 27.823C168.291 26.9373 168.543 26.1321 168.543 25.6691C168.543 25.2464 168.407 24.7633 168.252 24.6022C168.097 24.4412 167.632 24.3003 167.226 24.3003C166.78 24.3003 166.083 24.562 165.346 24.9847C164.707 25.3672 163.622 26.2931 162.925 27.038Z" fill="#0E0E0E"/>
<path d="M189.969 24.5217C187.838 26.7159 187.295 27.4003 187.47 27.5815C187.663 27.7626 187.896 27.6821 188.516 27.2191C188.961 26.897 189.6 26.273 189.93 25.8503C190.259 25.4276 190.627 25.1055 190.724 25.1055C190.821 25.1055 191.208 26.3938 191.576 27.9841C191.925 29.5542 192.274 31.1646 192.313 31.5471C192.371 31.9698 192.293 32.5133 192.099 32.9159C191.906 33.3185 191.518 33.6809 191.053 33.8822C190.647 34.0633 190.085 34.1438 189.755 34.0835C189.446 34.0231 189 33.7815 188.787 33.5399C188.496 33.2179 188.399 32.8153 188.38 31.8692C188.38 31.2049 188.341 30.5204 188.341 30.3997C188.322 30.2588 188.089 29.9971 187.818 29.836C187.373 29.5542 187.276 29.5743 186.695 29.9165C186.365 30.1178 186.017 30.4399 185.92 30.6211C185.842 30.8023 185.784 31.1847 185.784 31.5068C185.804 31.8088 185.959 32.3321 186.133 32.6744C186.307 33.0367 186.733 33.5399 187.043 33.8218C187.353 34.1036 188.148 34.4659 188.787 34.6471C189.639 34.8685 190.182 34.9088 190.821 34.7679C191.305 34.6672 192.119 34.3653 192.661 34.1036C193.184 33.8218 193.94 33.2581 194.308 32.8354C194.695 32.3925 195.102 31.7886 195.257 31.4464C195.47 30.9029 195.451 30.6815 195.025 29.4334C194.753 28.6685 193.959 27.0983 193.262 25.9711L191.983 23.8977C193.049 22.5691 193.339 22.0659 193.339 21.9451C193.339 21.8042 193.184 21.6834 193.01 21.6834C192.836 21.6834 191.46 22.9516 189.969 24.5217Z" fill="#0E0E0E"/>
<path fill-rule="evenodd" clip-rule="evenodd" d="M204.672 22.71C205.563 22.6899 206.028 22.8107 206.668 23.1931C207.113 23.475 207.617 23.9782 207.772 24.3003C207.927 24.6425 208.101 24.9042 208.159 24.9042C208.217 24.9042 208.547 24.7633 208.876 24.5821C209.225 24.4009 209.69 24.1392 209.903 24.0386C210.116 23.9178 210.619 23.6561 211.007 23.4548C211.414 23.2535 212.072 23.0321 212.46 22.9717C212.867 22.9113 213.428 22.9516 213.719 23.0724C214.203 23.2737 214.261 23.3944 214.261 24.1996C214.261 24.9042 214.339 25.1457 214.649 25.3068C214.862 25.4276 215.153 25.4477 215.269 25.3672C215.404 25.2867 216.005 24.8639 216.586 24.4009C217.245 23.8977 218.058 23.475 218.717 23.3139C219.298 23.173 220.034 23.0925 220.364 23.173C220.693 23.2334 221.197 23.4951 221.507 23.7366C221.991 24.1392 222.049 24.3003 221.972 25.0048C221.913 25.5282 221.565 26.2932 220.984 27.2191C220.48 28.0042 219.492 29.4536 218.795 30.4399C218.117 31.4263 217.535 32.3724 217.555 32.5133C217.555 32.6341 217.652 32.936 217.748 33.1575C217.865 33.399 218.136 33.5601 218.426 33.5601C218.756 33.5601 219.356 33.1172 220.364 32.1107C221.487 30.9834 221.836 30.7419 221.817 31.0438C221.817 31.2653 221.41 31.9094 220.906 32.4529C220.383 33.0166 219.589 33.7211 219.105 34.0029C218.62 34.3049 217.923 34.6068 217.555 34.6672C217.187 34.7477 216.547 34.7075 216.141 34.5867C215.753 34.4659 215.288 34.164 215.133 33.9224C214.978 33.6607 214.843 33.1373 214.843 32.7549C214.843 32.3321 215.114 31.5471 215.501 30.8425C215.869 30.1782 216.315 29.4938 216.509 29.3328C216.683 29.1717 217.129 28.588 217.497 28.0243C217.845 27.4808 218.446 26.6152 218.814 26.112C219.182 25.6087 219.492 25.0652 219.492 24.9042C219.492 24.7431 219.318 24.4211 219.105 24.1996C218.872 23.9581 218.562 23.8373 218.368 23.9178C218.194 23.9782 217.38 24.5217 216.586 25.1256C215.792 25.7295 214.726 26.6756 214.203 27.2191C213.7 27.7828 212.654 29.2523 211.879 30.5003C211.123 31.7484 210.135 33.2984 209.69 33.9224C209.244 34.5867 208.721 35.1302 208.43 35.1906C208.179 35.2711 207.811 35.2309 207.636 35.1503C207.442 35.0497 207.287 34.8283 207.287 34.6672C207.287 34.5062 207.559 33.8419 207.888 33.2179C208.217 32.5737 209.07 31.1445 209.748 30.0373C210.445 28.9302 211.298 27.5815 211.646 27.0178C211.976 26.4743 212.402 25.7094 212.576 25.3672C212.77 25.0048 212.905 24.5217 212.905 24.3003C212.905 24.0789 212.77 23.7568 212.615 23.5957C212.421 23.3944 212.15 23.334 211.801 23.4146C211.491 23.4951 210.949 23.7366 210.581 23.9581C210.213 24.1996 209.535 24.7029 209.07 25.0854C208.469 25.6087 208.179 26.0315 208.043 26.6152C207.946 27.0581 207.675 27.8834 207.462 28.4269C207.249 28.9906 206.842 29.836 206.551 30.3191C206.261 30.8023 205.505 31.7886 204.866 32.4932C204.052 33.399 203.297 34.0029 202.348 34.4861C201.224 35.0497 200.778 35.1705 199.771 35.1705C198.725 35.1705 198.493 35.09 197.95 34.6068C197.601 34.2848 197.156 33.701 196.982 33.2984C196.788 32.8757 196.633 32.0906 196.633 31.5068C196.633 30.923 196.846 29.8562 197.098 29.1315C197.33 28.4068 197.834 27.3198 198.221 26.7159C198.589 26.112 199.326 25.2061 199.849 24.723C200.391 24.2198 201.379 23.5957 202.154 23.2737C203.122 22.8711 203.839 22.71 204.672 22.71ZM203.026 24.1392C202.89 24.3204 203.064 24.6022 203.607 25.0652C204.188 25.5483 204.42 25.9107 204.537 26.5146C204.614 26.9574 204.711 27.3198 204.769 27.3198C204.827 27.3198 205.215 27.199 205.641 27.0178C206.067 26.8568 206.513 26.5146 206.648 26.273C206.784 26.0113 206.9 25.6087 206.9 25.3672C206.9 25.1055 206.668 24.6224 206.377 24.3003C206.028 23.8977 205.602 23.6561 205.157 23.5957C204.788 23.5555 204.188 23.5957 203.839 23.6964C203.491 23.8172 203.122 24.0185 203.026 24.1392ZM200.933 26.6152C200.604 27.1789 200.062 28.3464 199.732 29.2321C199.384 30.1984 199.151 31.225 199.151 31.8088C199.151 32.3321 199.209 32.8958 199.306 33.077C199.384 33.2581 199.674 33.54 199.984 33.6809C200.275 33.8419 200.74 33.9627 201.05 33.9627C201.34 33.9627 201.921 33.7815 202.348 33.5802C202.774 33.3789 203.394 32.8958 203.742 32.5334C204.072 32.151 204.75 31.2049 205.253 30.4399C205.738 29.675 206.222 28.7088 206.338 28.3263C206.454 27.9438 206.513 27.6016 206.474 27.5613C206.435 27.5412 205.951 27.8029 205.389 28.1652C204.711 28.6081 204.265 29.0711 204.072 29.5341C203.897 29.9166 203.607 30.601 203.394 31.0438C203.2 31.4867 202.735 32.1711 202.367 32.5536C201.98 32.936 201.631 33.1977 201.573 33.1172C201.515 33.0166 201.631 32.7146 201.844 32.4127C202.038 32.0906 202.425 31.4263 202.716 30.9029C202.987 30.3594 203.219 29.7958 203.219 29.6347C203.219 29.4737 203.084 29.3328 202.929 29.3328C202.774 29.3328 202.251 29.5341 201.766 29.7958C201.302 30.0373 200.837 30.1782 200.759 30.0977C200.682 30.0172 200.662 29.7958 200.759 29.6347C200.837 29.4737 201.36 29.1315 201.921 28.8698C202.754 28.4873 202.987 28.2659 203.277 27.5613C203.452 27.0984 203.607 26.6354 203.607 26.5146C203.607 26.3938 203.374 25.9912 203.084 25.6087C202.774 25.2061 202.444 24.8841 202.328 24.9042C202.212 24.9042 201.98 25.0652 201.825 25.2665C201.67 25.4477 201.263 26.0717 200.933 26.6152Z" fill="#0E0E0E"/>
</svg>
